<svg width="28" height="28" viewBox="0 0 28 28" fill="none" xmlns="http://www.w3.org/2000/svg">
<path d="M8.74992 4.08331C5.21634 4.08331 2.33325 6.9664 2.33325 10.5C2.33325 12.8894 4.13438 15.1392 6.33 17.4464C8.52562 19.7537 11.2281 22.0905 13.3813 24.2436C13.5454 24.4077 13.7679 24.4998 13.9999 24.4998C14.2319 24.4998 14.4545 24.4077 14.6186 24.2436C16.7717 22.0905 19.4742 19.7537 21.6698 17.4464C23.8655 15.1392 25.6666 12.8894 25.6666 10.5C25.6666 6.9664 22.7835 4.08331 19.2499 4.08331C17.222 4.08331 15.4564 5.1721 13.9999 7.02163C12.5434 5.1721 10.7778 4.08331 8.74992 4.08331ZM8.74992 5.83331C10.4583 5.83331 11.8803 6.74238 13.2605 8.92544C13.3394 9.05013 13.4486 9.15284 13.5779 9.22402C13.7072 9.29519 13.8523 9.33251 13.9999 9.33251C14.1475 9.33251 14.2927 9.29519 14.422 9.22402C14.5512 9.15284 14.6604 9.05013 14.7393 8.92544C16.1196 6.74238 17.5416 5.83331 19.2499 5.83331C21.8378 5.83331 23.9166 7.91206 23.9166 10.5C23.9166 11.9022 22.5094 14.0275 20.4029 16.241C18.482 18.2596 16.0943 20.3685 13.9999 22.4105C11.9056 20.3685 9.51783 18.2596 7.59692 16.241C5.49046 14.0275 4.08325 11.9022 4.08325 10.5C4.08325 7.91206 6.16199 5.83331 8.74992 5.83331Z" fill="black"/>
</svg>
