<svg width="26" height="26" viewBox="0 0 26 26" fill="none" xmlns="http://www.w3.org/2000/svg">
<path d="M12.9736 2.16665C12.8003 2.17257 12.6335 2.23374 12.4975 2.34121L4.79883 8.4064C3.82172 9.17645 3.25 10.3531 3.25 11.5972V21.9375C3.25 22.6761 3.86555 23.2917 4.60417 23.2917H10.0208C10.7594 23.2917 11.375 22.6761 11.375 21.9375V16.5208C11.375 16.361 11.486 16.25 11.6458 16.25H14.3542C14.514 16.25 14.625 16.361 14.625 16.5208V21.9375C14.625 22.6761 15.2406 23.2917 15.9792 23.2917H21.3958C22.1344 23.2917 22.75 22.6761 22.75 21.9375V11.5972C22.75 10.3531 22.1783 9.17645 21.2012 8.4064L13.5025 2.34121C13.3523 2.22252 13.1649 2.1607 12.9736 2.16665ZM13 4.01382L20.1961 9.68334C20.7833 10.1461 21.125 10.85 21.125 11.5972V21.6667H16.25V16.5208C16.25 15.4836 15.3914 14.625 14.3542 14.625H11.6458C10.6086 14.625 9.75 15.4836 9.75 16.5208V21.6667H4.875V11.5972C4.875 10.85 5.21665 10.1461 5.80387 9.68334L13 4.01382Z" fill="black"/>
</svg>
