<svg width="79" height="23" viewBox="0 0 79 23" fill="none" xmlns="http://www.w3.org/2000/svg">
<path d="M13.4 3.06C13.38 3.08 13.35 3.13 13.31 3.21C13.29 3.29 13.28 3.43 13.28 3.63C13.28 3.91 13.32 4.18 13.4 4.44V14.37C13.4 15.39 13.3 16.37 13.1 17.31C12.9 18.25 12.55 19.09 12.05 19.83C11.57 20.55 10.9 21.12 10.04 21.54C9.2 21.98 8.12 22.2 6.8 22.2H6.41C5.27 22.2 4.34 22.04 3.62 21.72C2.92 21.42 2.37 21.03 1.97 20.55C1.57 20.07 1.3 19.55 1.16 18.99C1.02 18.41 0.95 17.86 0.95 17.34C0.95 16.9 1.01 16.48 1.13 16.08C1.23 15.66 1.39 15.3 1.61 15C1.81 14.68 2.06 14.43 2.36 14.25C2.66 14.05 3 13.95 3.38 13.95C3.74 13.95 3.97 14.05 4.07 14.25C4.17 14.43 4.22 14.62 4.22 14.82C4.22 15.26 4.13 15.63 3.95 15.93C3.77 16.21 3.57 16.46 3.35 16.68C3.15 16.9 2.96 17.12 2.78 17.34C2.6 17.56 2.51 17.83 2.51 18.15C2.51 19.11 2.83 19.8 3.47 20.22C4.11 20.64 4.91 20.85 5.87 20.85C6.71 20.85 7.44 20.68 8.06 20.34C8.68 20 9.19 19.57 9.59 19.05C10.01 18.53 10.32 17.97 10.52 17.37C10.72 16.75 10.82 16.17 10.82 15.63L10.37 15.66C9.65 15.66 9.02 15.5 8.48 15.18C7.96 14.84 7.52 14.42 7.16 13.92C6.82 13.42 6.56 12.88 6.38 12.3C6.22 11.72 6.14 11.18 6.14 10.68V9.63C6.14 9.25 6.19 8.81 6.29 8.31C6.39 7.79 6.53 7.26 6.71 6.72C6.89 6.16 7.11 5.62 7.37 5.1C7.63 4.56 7.91 4.08 8.21 3.66C8.51 3.24 8.83 2.9 9.17 2.64C9.51 2.38 9.86 2.25 10.22 2.25C10.36 2.25 10.52 2.28 10.7 2.34L12.8 2.49C12.94 2.51 13.07 2.56 13.19 2.64C13.33 2.72 13.4 2.86 13.4 3.06ZM10.82 6.66C10.86 6.5 10.9 6.35 10.94 6.21C10.98 6.07 11 5.91 11 5.73C11 5.47 10.93 5.24 10.79 5.04C10.67 4.82 10.44 4.71 10.1 4.71C9.66 4.71 9.3 4.89 9.02 5.25C8.74 5.61 8.52 6.04 8.36 6.54C8.22 7.04 8.12 7.56 8.06 8.1C8 8.64 7.97 9.08 7.97 9.42C7.97 9.68 7.99 10.06 8.03 10.56C8.07 11.04 8.16 11.52 8.3 12C8.46 12.48 8.67 12.9 8.93 13.26C9.21 13.62 9.58 13.8 10.04 13.8C10.08 13.8 10.19 13.79 10.37 13.77C10.57 13.75 10.72 13.72 10.82 13.68V6.66ZM20.2829 14.46C19.9829 14.88 19.7329 15.35 19.5329 15.87C19.3529 16.37 19.1929 16.9 19.0529 17.46C18.9129 18 18.7929 18.55 18.6929 19.11C18.6129 19.65 18.5229 20.17 18.4229 20.67C18.3829 20.79 18.2229 20.87 17.9429 20.91C17.6829 20.95 17.4929 20.97 17.3729 20.97C17.0129 20.97 16.7129 20.95 16.4729 20.91C16.2529 20.87 16.0829 20.78 15.9629 20.64C15.8429 20.48 15.7529 20.25 15.6929 19.95C15.6329 19.63 15.5829 19.21 15.5429 18.69L15.9329 9.78C15.9329 9.52 16.0729 9.39 16.3529 9.39C16.4529 9.39 16.5929 9.41 16.7729 9.45C16.9529 9.47 17.1429 9.51 17.3429 9.57C17.5429 9.63 17.7129 9.71 17.8529 9.81C17.9929 9.89 18.0629 9.99 18.0629 10.11V16.2C18.0829 16.18 18.1129 16.1 18.1529 15.96C18.2929 15.6 18.4629 15.16 18.6629 14.64C18.8629 14.1 19.0829 13.59 19.3229 13.11C19.5629 12.63 19.8129 12.22 20.0729 11.88C20.3529 11.54 20.6329 11.37 20.9129 11.37C21.2729 11.37 21.5429 11.46 21.7229 11.64C21.9229 11.8 22.0729 12.01 22.1729 12.27C22.2729 12.53 22.3329 12.81 22.3529 13.11C22.3729 13.41 22.3829 13.7 22.3829 13.98C22.3829 14.18 22.3629 14.51 22.3229 14.97C22.2829 15.43 22.2629 16.12 22.2629 17.04C22.2629 17.56 22.3129 18.03 22.4129 18.45C22.5129 18.87 22.7129 19.08 23.0129 19.08C23.2329 19.08 23.4329 18.98 23.6129 18.78C23.7929 18.58 23.9529 18.33 24.0929 18.03C24.2529 17.73 24.3829 17.41 24.4829 17.07C24.5829 16.73 24.6429 16.41 24.6629 16.11C24.6829 15.73 24.8329 15.54 25.1129 15.54C25.2929 15.54 25.4129 15.6 25.4729 15.72C25.5329 15.84 25.5629 15.98 25.5629 16.14V16.2C25.5429 16.6 25.4629 17.05 25.3229 17.55C25.2029 18.05 25.0129 18.52 24.7529 18.96C24.5129 19.4 24.1929 19.77 23.7929 20.07C23.3929 20.37 22.9029 20.52 22.3229 20.52C21.4229 20.52 20.8429 20.2 20.5829 19.56C20.3429 18.9 20.2229 17.93 20.2229 16.65L20.2829 14.46ZM31.9735 19.14C31.9735 19.62 31.8135 19.99 31.4935 20.25C31.1735 20.51 30.8035 20.7 30.3835 20.82C29.9835 20.94 29.5735 21.01 29.1535 21.03C28.7535 21.07 28.4635 21.09 28.2835 21.09C28.0035 21.09 27.6535 21.06 27.2335 21C26.8335 20.94 26.4335 20.85 26.0335 20.73C25.6535 20.59 25.3235 20.4 25.0435 20.16C24.7835 19.92 24.6535 19.62 24.6535 19.26C24.6535 19.04 24.7335 18.89 24.8935 18.81C25.0735 18.71 25.2435 18.66 25.4035 18.66C25.6235 18.66 25.8335 18.74 26.0335 18.9C26.2535 19.06 26.4735 19.23 26.6935 19.41C26.9335 19.59 27.1935 19.76 27.4735 19.92C27.7535 20.08 28.0735 20.16 28.4335 20.16C28.5935 20.16 28.8035 20.11 29.0635 20.01C29.3435 19.89 29.4835 19.69 29.4835 19.41C29.4835 19.13 29.3635 18.86 29.1235 18.6C28.9035 18.34 28.6135 18.07 28.2535 17.79C27.9135 17.51 27.5435 17.22 27.1435 16.92C26.7435 16.62 26.3635 16.3 26.0035 15.96C25.6635 15.6 25.3735 15.21 25.1335 14.79C24.9135 14.37 24.8035 13.91 24.8035 13.41C24.8035 12.71 25.0235 12.12 25.4635 11.64C25.9235 11.16 26.4535 10.78 27.0535 10.5C27.6735 10.22 28.3035 10.02 28.9435 9.9C29.5835 9.78 30.0835 9.72 30.4435 9.72C30.7835 9.72 31.1235 9.79 31.4635 9.93C31.8035 10.07 31.9735 10.34 31.9735 10.74C31.9735 10.86 31.9435 11.04 31.8835 11.28C31.8435 11.5 31.7635 11.72 31.6435 11.94C31.5435 12.16 31.4035 12.36 31.2235 12.54C31.0435 12.7 30.8135 12.78 30.5335 12.78C30.4535 12.78 30.3735 12.75 30.2935 12.69C30.2135 12.61 30.1235 12.53 30.0235 12.45C29.9235 12.35 29.8135 12.27 29.6935 12.21C29.5935 12.13 29.4735 12.09 29.3335 12.09C28.6335 12.09 28.1435 12.3 27.8635 12.72C27.5835 13.12 27.4435 13.55 27.4435 14.01C27.4435 14.41 27.6735 14.83 28.1335 15.27C28.6135 15.71 29.1335 16.15 29.6935 16.59C30.2735 17.03 30.7935 17.47 31.2535 17.91C31.7335 18.33 31.9735 18.74 31.9735 19.14ZM32.6197 15.57C32.6397 14.55 32.6697 13.51 32.7097 12.45C32.7497 11.39 32.7897 10.41 32.8297 9.51C32.8297 9.35 32.6697 9.24 32.3497 9.18C32.0297 9.12 31.6697 9.06 31.2697 9C30.8697 8.94 30.5097 8.85 30.1897 8.73C29.8697 8.59 29.7097 8.37 29.7097 8.07C29.7097 7.81 29.9697 7.66 30.4897 7.62C31.0097 7.58 31.7797 7.56 32.7997 7.56C32.8797 7.56 32.9297 7.44 32.9497 7.2C32.9897 6.96 33.0097 6.66 33.0097 6.3C33.0297 5.92 33.0397 5.52 33.0397 5.1C33.0597 4.68 33.0797 4.29 33.0997 3.93C33.1197 3.55 33.1497 3.24 33.1897 3C33.2497 2.76 33.3197 2.64 33.3997 2.64C33.4997 2.64 33.6797 2.66 33.9397 2.7C34.1997 2.74 34.4697 2.8 34.7497 2.88C35.0297 2.94 35.2697 3.02 35.4697 3.12C35.6897 3.22 35.7997 3.33 35.7997 3.45L35.4697 7.35C35.4697 7.47 35.5697 7.56 35.7697 7.62C35.9897 7.66 36.2597 7.69 36.5797 7.71C36.9197 7.71 37.2697 7.71 37.6297 7.71C38.0097 7.71 38.3597 7.74 38.6797 7.8C39.0197 7.86 39.2897 7.96 39.4897 8.1C39.7097 8.22 39.8197 8.41 39.8197 8.67C39.8197 8.71 39.7997 8.78 39.7597 8.88C39.7197 8.96 39.6697 9 39.6097 9C39.5697 9 39.5097 8.97 39.4297 8.91C39.3697 8.85 39.1897 8.82 38.8897 8.82C38.8097 8.82 38.5897 8.83 38.2297 8.85C37.8697 8.87 37.4897 8.9 37.0897 8.94C36.6897 8.98 36.3197 9.03 35.9797 9.09C35.6597 9.13 35.4797 9.19 35.4397 9.27C35.4197 9.31 35.3897 9.55 35.3497 9.99C35.3297 10.41 35.2997 10.97 35.2597 11.67C35.2397 12.37 35.2197 13.18 35.1997 14.1C35.1797 15 35.1697 15.95 35.1697 16.95C35.1697 17.33 35.1897 17.7 35.2297 18.06C35.2697 18.42 35.3297 18.75 35.4097 19.05C35.4897 19.33 35.5897 19.56 35.7097 19.74C35.8497 19.92 36.0097 20.01 36.1897 20.01C36.4497 20.01 36.6897 19.9 36.9097 19.68C37.1297 19.46 37.3297 19.16 37.5097 18.78C37.6897 18.4 37.8497 17.97 37.9897 17.49C38.1297 17.01 38.2497 16.52 38.3497 16.02C38.4097 15.72 38.4797 15.51 38.5597 15.39C38.6397 15.25 38.7597 15.18 38.9197 15.18C39.0597 15.18 39.1797 15.23 39.2797 15.33C39.3997 15.41 39.4597 15.61 39.4597 15.93C39.4597 16.13 39.4497 16.26 39.4297 16.32C39.3697 16.68 39.2497 17.18 39.0697 17.82C38.9097 18.44 38.6797 19.06 38.3797 19.68C38.0997 20.28 37.7497 20.81 37.3297 21.27C36.9097 21.73 36.4197 21.96 35.8597 21.96C35.3197 21.96 34.8497 21.8 34.4497 21.48C34.0497 21.18 33.7097 20.76 33.4297 20.22C33.1697 19.66 32.9697 19.01 32.8297 18.27C32.6897 17.51 32.6197 16.7 32.6197 15.84V15.57ZM50.4223 17.73C50.3823 18.01 50.2823 18.34 50.1223 18.72C49.9623 19.1 49.7523 19.47 49.4923 19.83C49.2523 20.17 48.9623 20.46 48.6223 20.7C48.3023 20.94 47.9423 21.06 47.5423 21.06C46.9423 21.06 46.4123 20.83 45.9523 20.37C45.5123 19.91 45.2423 19.26 45.1423 18.42C45.0223 18.74 44.8823 19.11 44.7223 19.53C44.5623 19.95 44.3623 20.34 44.1223 20.7C43.8823 21.06 43.6023 21.36 43.2823 21.6C42.9823 21.86 42.6223 21.99 42.2023 21.99C42.0823 21.99 41.9923 21.98 41.9323 21.96C41.8723 21.94 41.8023 21.91 41.7223 21.87C41.6623 21.85 41.5823 21.83 41.4823 21.81C41.4023 21.79 41.2823 21.78 41.1223 21.78C40.6423 21.78 40.2323 21.62 39.8923 21.3C39.5723 21 39.3123 20.61 39.1123 20.13C38.9123 19.65 38.7623 19.13 38.6623 18.57C38.5823 17.99 38.5423 17.45 38.5423 16.95C38.5423 15.75 38.6023 14.61 38.7223 13.53C38.8623 12.45 39.0823 11.5 39.3823 10.68C39.6823 9.84 40.0723 9.18 40.5523 8.7C41.0323 8.2 41.6123 7.95 42.2923 7.95C42.6923 7.95 42.9923 7.99 43.1923 8.07C43.4123 8.13 43.6123 8.21 43.7923 8.31C43.9723 8.39 44.1623 8.48 44.3623 8.58C44.5823 8.68 44.8823 8.76 45.2623 8.82C45.6823 9.06 45.9723 9.35 46.1323 9.69C46.3123 10.01 46.4223 10.36 46.4623 10.74C46.5223 11.12 46.5423 11.52 46.5223 11.94C46.5023 12.34 46.5223 12.74 46.5823 13.14C46.5823 13.16 46.6223 13.19 46.7023 13.23C46.8023 13.27 46.9123 13.32 47.0323 13.38C47.1523 13.42 47.2523 13.49 47.3323 13.59C47.4323 13.67 47.4823 13.78 47.4823 13.92V14.04C47.2823 14.56 47.1623 15.02 47.1223 15.42C47.0823 15.82 47.0623 16.3 47.0623 16.86C47.0623 17.14 47.0723 17.45 47.0923 17.79C47.1323 18.11 47.1823 18.42 47.2423 18.72C47.3223 19 47.4323 19.24 47.5723 19.44C47.7123 19.62 47.8923 19.71 48.1123 19.71C48.3523 19.71 48.5623 19.59 48.7423 19.35C48.9423 19.11 49.1023 18.84 49.2223 18.54C49.3623 18.22 49.4723 17.9 49.5523 17.58C49.6523 17.26 49.7123 17.02 49.7323 16.86C49.7723 16.62 49.8723 16.5 50.0323 16.5C50.1323 16.5 50.2223 16.56 50.3023 16.68C50.4023 16.78 50.4523 16.97 50.4523 17.25C50.4523 17.33 50.4523 17.41 50.4523 17.49C50.4523 17.55 50.4423 17.63 50.4223 17.73ZM44.8723 12.87C44.8723 12.65 44.8523 12.39 44.8123 12.09C44.7723 11.79 44.7023 11.51 44.6023 11.25C44.5023 10.99 44.3523 10.77 44.1523 10.59C43.9523 10.41 43.6823 10.32 43.3423 10.32C42.7823 10.32 42.3223 10.58 41.9623 11.1C41.6223 11.6 41.3523 12.2 41.1523 12.9C40.9523 13.58 40.8223 14.29 40.7623 15.03C40.7023 15.75 40.6723 16.32 40.6723 16.74C40.6723 17.06 40.6823 17.45 40.7023 17.91C40.7423 18.35 40.8023 18.77 40.8823 19.17C40.9623 19.57 41.0723 19.91 41.2123 20.19C41.3723 20.47 41.5723 20.61 41.8123 20.61C42.3923 20.61 42.8323 20.39 43.1323 19.95C43.4523 19.49 43.6923 18.93 43.8523 18.27C44.0123 17.59 44.1223 16.87 44.1823 16.11C44.2623 15.33 44.3323 14.62 44.3923 13.98C44.4323 13.64 44.5223 13.43 44.6623 13.35C44.8023 13.25 44.8723 13.18 44.8723 13.14V12.87ZM61.7708 15.87C61.7308 16.31 61.6408 16.81 61.5008 17.37C61.3808 17.93 61.1908 18.46 60.9308 18.96C60.6908 19.46 60.3608 19.88 59.9408 20.22C59.5408 20.56 59.0508 20.73 58.4708 20.73C57.6108 20.73 56.9808 20.53 56.5808 20.13C56.2008 19.73 55.8808 19.11 55.6208 18.27L55.5908 18.42C55.5108 18.74 55.4108 19.09 55.2908 19.47C55.1908 19.85 55.0408 20.2 54.8408 20.52C54.6608 20.82 54.4308 21.07 54.1508 21.27C53.8708 21.49 53.5108 21.6 53.0708 21.6C52.7708 21.6 52.4708 21.54 52.1708 21.42C51.8908 21.32 51.5908 21.19 51.2708 21.03C50.8108 20.79 50.4508 20.47 50.1908 20.07C49.9308 19.67 49.7408 19.26 49.6208 18.84C49.5008 18.42 49.4308 18.02 49.4108 17.64C49.3908 17.24 49.3808 16.93 49.3808 16.71V16.2C49.3808 16.08 49.4108 15.82 49.4708 15.42C49.5308 15.02 49.6208 14.56 49.7408 14.04C49.8808 13.5 50.0408 12.94 50.2208 12.36C50.4208 11.78 50.6508 11.25 50.9108 10.77C51.1908 10.29 51.5008 9.89 51.8408 9.57C52.2008 9.25 52.6008 9.09 53.0408 9.09C53.5208 9.09 53.9808 9.17 54.4208 9.33C54.8808 9.49 55.2108 9.61 55.4108 9.69C55.4308 9.33 55.4408 8.89 55.4408 8.37C55.4608 7.85 55.4708 7.34 55.4708 6.84C55.4908 6.32 55.5008 5.84 55.5008 5.4C55.5008 4.96 55.5008 4.63 55.5008 4.41C55.5008 3.89 55.4908 3.45 55.4708 3.09C55.4508 2.71 55.4108 2.39 55.3508 2.13C55.3108 1.87 55.2608 1.66 55.2008 1.5C55.1408 1.34 55.0708 1.2 54.9908 1.08C55.3308 0.979999 55.6608 0.909999 55.9808 0.87C56.3208 0.829999 56.6308 0.809999 56.9108 0.809999C57.3708 0.809999 57.7208 0.849999 57.9608 0.929999C58.2208 0.99 58.3508 1.16 58.3508 1.44C58.3508 1.56 58.3208 1.91 58.2608 2.49C58.2008 3.07 58.1408 3.83 58.0808 4.77C58.0208 5.69 57.9608 6.76 57.9008 7.98C57.8408 9.2 57.8108 10.5 57.8108 11.88V14.91C57.8108 15.47 57.8208 16.01 57.8408 16.53C57.8608 17.03 57.9008 17.48 57.9608 17.88C58.0408 18.26 58.1508 18.57 58.2908 18.81C58.4308 19.03 58.6308 19.14 58.8908 19.14C59.4708 19.14 59.9008 18.81 60.1808 18.15C60.4808 17.47 60.7208 16.41 60.9008 14.97C60.9208 14.81 60.9608 14.67 61.0208 14.55C61.0808 14.43 61.2108 14.37 61.4108 14.37C61.5908 14.37 61.7008 14.49 61.7408 14.73C61.8008 14.95 61.8208 15.17 61.8008 15.39L61.7708 15.87ZM55.4408 11.52C55.4408 11.46 55.3908 11.39 55.2908 11.31C55.2108 11.23 55.1008 11.15 54.9608 11.07C54.8408 10.99 54.7108 10.92 54.5708 10.86C54.4308 10.8 54.3108 10.77 54.2108 10.77C53.8108 10.77 53.4508 11.02 53.1308 11.52C52.8308 12 52.5708 12.6 52.3508 13.32C52.1508 14.04 52.0008 14.81 51.9008 15.63C51.8008 16.45 51.7508 17.18 51.7508 17.82C51.7508 18.06 51.7608 18.34 51.7808 18.66C51.8008 18.98 51.8508 19.28 51.9308 19.56C52.0108 19.84 52.1208 20.08 52.2608 20.28C52.4008 20.48 52.5908 20.58 52.8308 20.58C53.0908 20.58 53.3308 20.43 53.5508 20.13C53.7708 19.83 53.9708 19.44 54.1508 18.96C54.3308 18.48 54.4908 17.94 54.6308 17.34C54.7908 16.74 54.9208 16.15 55.0208 15.57C55.1408 14.97 55.2308 14.41 55.2908 13.89C55.3508 13.35 55.3908 12.92 55.4108 12.6L55.4408 11.52ZM69.6008 16.38C69.6008 16.88 69.5108 17.44 69.3308 18.06C69.1508 18.68 68.8708 19.26 68.4908 19.8C68.1108 20.32 67.6208 20.76 67.0208 21.12C66.4408 21.48 65.7408 21.66 64.9208 21.66C64.1408 21.66 63.4808 21.52 62.9408 21.24C62.4008 20.96 61.9508 20.58 61.5908 20.1C61.2508 19.62 61.0008 19.06 60.8408 18.42C60.7008 17.76 60.6308 17.07 60.6308 16.35C60.6308 15.65 60.7108 14.88 60.8708 14.04C61.0308 13.2 61.2808 12.42 61.6208 11.7C61.9608 10.96 62.3908 10.35 62.9108 9.87C63.4308 9.37 64.0608 9.12 64.8008 9.12C65.1608 9.12 65.5008 9.2 65.8208 9.36C66.1408 9.5 66.4208 9.69 66.6608 9.93C66.9008 10.17 67.0908 10.45 67.2308 10.77C67.3708 11.09 67.4508 11.42 67.4708 11.76L67.5008 12.18C67.5008 12.66 67.4208 13.19 67.2608 13.77C67.1008 14.33 66.8708 14.86 66.5708 15.36C66.2708 15.84 65.9008 16.25 65.4608 16.59C65.0208 16.91 64.5208 17.07 63.9608 17.07C63.8608 17.07 63.7308 17.06 63.5708 17.04C63.4308 17.02 63.2908 16.99 63.1508 16.95V17.82C63.1508 17.96 63.1908 18.16 63.2708 18.42C63.3708 18.68 63.5108 18.94 63.6908 19.2C63.8708 19.44 64.1008 19.66 64.3808 19.86C64.6808 20.04 65.0408 20.13 65.4608 20.13C66.0408 20.13 66.5108 20.02 66.8708 19.8C67.2508 19.56 67.5608 19.26 67.8008 18.9C68.0408 18.54 68.2208 18.14 68.3408 17.7C68.4808 17.24 68.5908 16.8 68.6708 16.38C68.7308 16.1 68.7908 15.91 68.8508 15.81C68.9108 15.71 69.0108 15.66 69.1508 15.66C69.4508 15.66 69.6008 15.83 69.6008 16.17V16.38ZM66.0608 11.73C66.0608 11.57 66.0108 11.4 65.9108 11.22C65.8308 11.04 65.6708 10.95 65.4308 10.95C65.0708 10.95 64.7608 11.14 64.5008 11.52C64.2408 11.9 64.0208 12.34 63.8408 12.84C63.6808 13.32 63.5608 13.79 63.4808 14.25C63.4008 14.69 63.3608 14.98 63.3608 15.12V15.21C63.3608 15.39 63.3708 15.54 63.3908 15.66C63.4308 15.76 63.5408 15.81 63.7208 15.81H63.8708C64.2708 15.81 64.6108 15.66 64.8908 15.36C65.1708 15.06 65.3908 14.7 65.5508 14.28C65.7308 13.86 65.8608 13.43 65.9408 12.99C66.0208 12.55 66.0608 12.19 66.0608 11.91V11.73ZM78.2567 14.49C78.2567 14.79 78.1967 15.02 78.0767 15.18C77.9767 15.34 77.8367 15.46 77.6567 15.54C77.4767 15.62 77.2667 15.68 77.0267 15.72C76.8067 15.74 76.5867 15.76 76.3667 15.78V15.93C76.3667 16.35 76.3067 16.88 76.1867 17.52C76.0667 18.16 75.8867 18.78 75.6467 19.38C75.4267 19.98 75.1367 20.5 74.7767 20.94C74.4367 21.38 74.0267 21.62 73.5467 21.66C73.4467 21.68 73.3467 21.69 73.2467 21.69C73.1467 21.69 73.0467 21.69 72.9467 21.69C71.9867 21.69 71.2367 21.46 70.6967 21C70.1567 20.56 69.7567 20 69.4967 19.32C69.2367 18.62 69.0767 17.86 69.0167 17.04C68.9567 16.22 68.9267 15.44 68.9267 14.7C68.9267 13 69.0967 11.27 69.4367 9.51C69.6567 9.49 69.8567 9.46 70.0367 9.42C70.2167 9.36 70.4167 9.33 70.6367 9.33C70.6767 9.33 70.7667 9.33 70.9067 9.33C71.0467 9.33 71.1867 9.34 71.3267 9.36C71.4867 9.38 71.6267 9.41 71.7467 9.45C71.8667 9.49 71.9267 9.54 71.9267 9.6C71.9267 9.7 71.9167 9.84 71.8967 10.02C71.8767 10.18 71.8467 10.36 71.8067 10.56C71.7867 10.74 71.7567 10.92 71.7167 11.1C71.6967 11.28 71.6767 11.43 71.6567 11.55C71.5567 12.25 71.4767 12.96 71.4167 13.68C71.3567 14.4 71.3267 15.12 71.3267 15.84C71.3267 16.12 71.3467 16.51 71.3867 17.01C71.4267 17.49 71.5067 17.97 71.6267 18.45C71.7467 18.93 71.9167 19.35 72.1367 19.71C72.3767 20.05 72.6867 20.22 73.0667 20.22C73.4267 20.22 73.7167 20.04 73.9367 19.68C74.1567 19.3 74.3267 18.87 74.4467 18.39C74.5667 17.89 74.6467 17.4 74.6867 16.92C74.7267 16.42 74.7467 16.04 74.7467 15.78C74.7467 15.68 74.6767 15.57 74.5367 15.45C74.4167 15.33 74.2667 15.17 74.0867 14.97C73.9267 14.77 73.7667 14.53 73.6067 14.25C73.4667 13.97 73.3767 13.63 73.3367 13.23V12.6C73.3367 12.44 73.3367 12.25 73.3367 12.03C73.3567 11.81 73.3767 11.59 73.3967 11.37C73.4367 11.13 73.4767 10.91 73.5167 10.71C73.5767 10.49 73.6467 10.32 73.7267 10.2C73.7267 10.18 73.7567 10.15 73.8167 10.11C73.8967 10.07 73.9767 10.03 74.0567 9.99C74.1367 9.95 74.2167 9.92 74.2967 9.9C74.3767 9.86 74.4267 9.84 74.4467 9.84C74.5067 9.84 74.5867 9.85 74.6867 9.87C74.8067 9.89 74.9267 9.91 75.0467 9.93C75.1867 9.95 75.3067 9.98 75.4067 10.02C75.5267 10.04 75.6067 10.06 75.6467 10.08C75.7467 10.14 75.8067 10.24 75.8267 10.38C75.8467 10.5 75.8767 10.6 75.9167 10.68C76.0167 11 76.0867 11.3 76.1267 11.58C76.1867 11.84 76.2167 12.11 76.2167 12.39C76.2367 12.65 76.2467 12.93 76.2467 13.23C76.2667 13.51 76.2867 13.83 76.3067 14.19C76.3067 14.25 76.3967 14.32 76.5767 14.4C76.7767 14.46 76.9067 14.49 76.9667 14.49C77.2467 14.49 77.4767 14.41 77.6567 14.25C77.8367 14.09 77.9567 14.01 78.0167 14.01C78.1167 14.01 78.1767 14.08 78.1967 14.22C78.2367 14.34 78.2567 14.43 78.2567 14.49Z" fill="black"/>
</svg>
