<svg width="10" height="10" viewBox="0 0 10 10" fill="none" xmlns="http://www.w3.org/2000/svg">
<path d="M9.864 8.64564L7.91659 6.69856C7.8287 6.61068 7.70955 6.56186 7.58454 6.56186H7.26616C7.80526 5.87247 8.12559 5.00537 8.12559 4.0621C8.12559 1.81818 6.3071 0 4.0628 0C1.81849 0 0 1.81818 0 4.0621C0 6.30602 1.81849 8.12421 4.0628 8.12421C5.00623 8.12421 5.87348 7.80393 6.56298 7.26492V7.58324C6.56298 7.70823 6.61181 7.82736 6.69971 7.91524L8.64712 9.86232C8.83072 10.0459 9.12762 10.0459 9.30927 9.86232L9.86205 9.30964C10.0457 9.12606 10.0457 8.82922 9.864 8.64564ZM4.0628 6.56186C2.68184 6.56186 1.56261 5.44478 1.56261 4.0621C1.56261 2.68138 2.67988 1.56235 4.0628 1.56235C5.44376 1.56235 6.56298 2.67943 6.56298 4.0621C6.56298 5.44283 5.44571 6.56186 4.0628 6.56186Z" fill="#AFAFAF"/>
</svg>
