<svg width="24" height="21" viewBox="0 0 24 21" fill="none" xmlns="http://www.w3.org/2000/svg">
<path d="M6.6 0C2.96546 0 0 2.96549 0 6.60006C0 9.05777 1.85259 11.3718 4.11094 13.745C6.36929 16.1182 9.14903 18.5218 11.3637 20.7365C11.5325 20.9052 11.7613 21 12 21C12.2387 21 12.4675 20.9052 12.6363 20.7365C14.851 18.5218 17.6307 16.1182 19.8891 13.745C22.1474 11.3718 24 9.05777 24 6.60006C24 2.96549 21.0345 0 17.4 0C15.3141 0 13.4981 1.1199 12 3.02229C10.5019 1.1199 8.68586 0 6.6 0ZM6.6 1.80001C8.35714 1.80001 9.81978 2.73506 11.2395 4.98051C11.3206 5.10877 11.4329 5.21442 11.5659 5.28762C11.6989 5.36083 11.8482 5.39922 12 5.39922C12.1518 5.39922 12.3011 5.36083 12.4341 5.28762C12.5671 5.21442 12.6794 5.10877 12.7605 4.98051C14.1802 2.73506 15.6429 1.80001 17.4 1.80001C20.0619 1.80001 22.2 3.93817 22.2 6.60006C22.2 8.04237 20.7526 10.2283 18.5859 12.5052C16.6102 14.5814 14.1542 16.7506 12 18.8509C9.84581 16.7506 7.38985 14.5814 5.41406 12.5052C3.24741 10.2283 1.8 8.04237 1.8 6.60006C1.8 3.93817 3.93813 1.80001 6.6 1.80001Z" fill="#ED4956"/>
<path d="M6.6 1.80001C8.35714 1.80001 9.81978 2.73506 11.2395 4.98051C11.3206 5.10877 11.4329 5.21442 11.5659 5.28762C11.6989 5.36083 11.8482 5.39922 12 5.39922C12.1518 5.39922 12.3011 5.36083 12.4341 5.28762C12.5671 5.21442 12.6794 5.10877 12.7605 4.98051C14.1802 2.73506 15.6429 1.80001 17.4 1.80001C20.0619 1.80001 22.2 3.93817 22.2 6.60006C22.2 8.04237 20.7526 10.2283 18.5859 12.5052C16.6102 14.5814 14.1542 16.7506 12 18.8509C9.84581 16.7506 7.38985 14.5814 5.41406 12.5052C3.24741 10.2283 1.8 8.04237 1.8 6.60006C1.8 3.93817 3.93813 1.80001 6.6 1.80001Z" fill="#ED4956"/>
</svg>
