<svg width="24" height="21" viewBox="0 0 24 21" fill="none" xmlns="http://www.w3.org/2000/svg">
<path d="M6.75016 0.0833435C3.21659 0.0833435 0.333496 2.96644 0.333496 6.50001C0.333496 8.88943 2.13462 11.1392 4.33024 13.4465C6.52586 15.7537 9.22838 18.0905 11.3815 20.2437C11.5456 20.4077 11.7681 20.4998 12.0002 20.4998C12.2322 20.4998 12.4547 20.4077 12.6188 20.2437C14.7719 18.0905 17.4745 15.7537 19.6701 13.4465C21.8657 11.1392 23.6668 8.88943 23.6668 6.50001C23.6668 2.96644 20.7837 0.0833435 17.2502 0.0833435C15.2222 0.0833435 13.4566 1.17213 12.0002 3.02166C10.5437 1.17213 8.77808 0.0833435 6.75016 0.0833435ZM6.75016 1.83334C8.4585 1.83334 9.8805 2.74241 11.2607 4.92547C11.3397 5.05016 11.4488 5.15287 11.5781 5.22405C11.7074 5.29522 11.8526 5.33254 12.0002 5.33254C12.1477 5.33254 12.2929 5.29522 12.4222 5.22405C12.5515 5.15287 12.6607 5.05016 12.7396 4.92547C14.1198 2.74241 15.5418 1.83334 17.2502 1.83334C19.8381 1.83334 21.9168 3.91209 21.9168 6.50001C21.9168 7.90226 20.5096 10.0275 18.4032 12.2411C16.4823 14.2596 14.0945 16.3685 12.0002 18.4105C9.90582 16.3685 7.51807 14.2596 5.59717 12.2411C3.4907 10.0275 2.0835 7.90226 2.0835 6.50001C2.0835 3.91209 4.16224 1.83334 6.75016 1.83334Z" fill="black"/>
</svg>
