<svg width="24" height="21" viewBox="0 0 24 21" fill="none" xmlns="http://www.w3.org/2000/svg">
<path d="M6.74967 0.0833359C3.2161 0.0833359 0.333008 2.96643 0.333008 6.5C0.333008 8.88943 2.13413 11.1392 4.32975 13.4465C6.52537 15.7537 9.2279 18.0905 11.381 20.2437C11.5451 20.4077 11.7677 20.4998 11.9997 20.4998C12.2317 20.4998 12.4542 20.4077 12.6183 20.2437C14.7715 18.0905 17.474 15.7537 19.6696 13.4465C21.8652 11.1392 23.6663 8.88943 23.6663 6.5C23.6663 2.96643 20.7833 0.0833359 17.2497 0.0833359C15.2218 0.0833359 13.4562 1.17212 11.9997 3.02165C10.5432 1.17212 8.7776 0.0833359 6.74967 0.0833359ZM6.74967 1.83334C8.45801 1.83334 9.88002 2.7424 11.2603 4.92546C11.3392 5.05016 11.4484 5.15287 11.5776 5.22404C11.7069 5.29521 11.8521 5.33253 11.9997 5.33253C12.1473 5.33253 12.2924 5.29521 12.4217 5.22404C12.551 5.15287 12.6602 5.05016 12.7391 4.92546C14.1193 2.7424 15.5413 1.83334 17.2497 1.83334C19.8376 1.83334 21.9163 3.91208 21.9163 6.5C21.9163 7.90225 20.5091 10.0275 18.4027 12.2411C16.4818 14.2596 14.094 16.3685 11.9997 18.4105C9.90533 16.3685 7.51758 14.2596 5.59668 12.2411C3.49022 10.0275 2.08301 7.90225 2.08301 6.5C2.08301 3.91208 4.16175 1.83334 6.74967 1.83334Z" fill="black"/>
</svg>
