<?xml version="1.0" encoding="utf-8"?>
<!-- Generator: Adobe Illustrator 24.0.1, SVG Export Plug-In . SVG Version: 6.00 Build 0)  -->
<svg version="1.1" id="Layer_1" xmlns="http://www.w3.org/2000/svg" xmlns:xlink="http://www.w3.org/1999/xlink" x="0px" y="0px"
	 viewBox="0 0 24 21" style="enable-background:new 0 0 24 21;" xml:space="preserve">
<style type="text/css">
	.st0{fill:#ED4956;}
</style>
<path class="st0" d="M17.4,0c-2.1,0-3.9,1.1-5.4,3c-1.5-1.9-3.3-3-5.4-3C3,0,0,3,0,6.6c0,2.5,1.9,4.8,4.1,7.1c2.3,2.4,5,4.8,7.3,7
	c0.2,0.2,0.4,0.3,0.6,0.3s0.5-0.1,0.6-0.3c2.2-2.2,5-4.6,7.3-7c2.3-2.4,4.1-4.7,4.1-7.1C24,3,21,0,17.4,0z"/>
</svg>
