<svg width="24" height="22" viewBox="0 0 24 22" fill="none" xmlns="http://www.w3.org/2000/svg">
<path d="M3.49337 21.566H1.79281L2.99532 20.3635C3.64369 19.7151 4.04858 18.8718 4.15744 17.957C2.46551 16.8467 1.2283 15.3859 0.566021 13.7106C-0.0957876 12.0366 -0.178954 10.1939 0.325539 8.3815C0.930854 6.20683 2.3506 4.22469 4.32316 2.80015C6.4667 1.25221 9.13516 0.433975 12.0401 0.433975C15.6996 0.433975 18.7841 1.48536 20.9601 3.47441C22.9204 5.26636 24 7.68344 24 10.2805C24 11.5422 23.7431 12.7699 23.2364 13.9294C22.7121 15.1293 21.9444 16.1977 20.9545 17.1048C18.7756 19.1017 15.693 20.1572 12.0401 20.1572C10.684 20.1572 9.26895 19.9762 8.00558 19.644C6.80974 20.8707 5.18929 21.566 3.49337 21.566ZM12.0401 1.84278C6.21523 1.84278 2.64105 5.31656 1.68273 8.7593C0.777154 12.0127 2.11209 15.0868 5.25372 16.9827L5.60475 17.1945L5.59395 17.6044C5.57253 18.4156 5.37915 19.1969 5.03301 19.9032C5.8759 19.618 6.64073 19.1009 7.23966 18.3933L7.53748 18.0415L7.97914 18.1736C9.21856 18.5443 10.6608 18.7484 12.0401 18.7484C19.2894 18.7484 22.5912 14.3589 22.5912 10.2805C22.5912 8.08387 21.6744 6.03603 20.0095 4.51424C18.0976 2.76658 15.3418 1.84278 12.0401 1.84278Z" fill="black"/>
</svg>
